<?xml version="1.0" encoding="UTF-8"?>
<svg xmlns="http://www.w3.org/2000/svg" viewBox="0 0 1366 768">
  <defs>
    <style>
      .cls-1 {
        fill: #ed1c24;
      }

      .cls-2 {
        fill: #ff0;
      }
    </style>
  </defs>
  <g id="Layer_2" data-name="Layer 2">
    <path class="cls-1" d="M826.5,243.5l151,176,17-88,126,46-107-20-27,117-131-131-110,278c-67.29-74.58-132.33-120.58-165-120-17.94,.32-38,3-38,3-19.56,2.62-28.74,5.53-47,9-12.6,2.4-31,5.34-54,7-4.15-2.19-7.61-2.82-10-3-3.85-.28-4.89,.63-9,0-4.04-.62-4.47-1.72-8-2-4.19-.33-4.89,1.12-8,1-7.29-.29-12.25-8.62-13-8-.65,.54,3.71,6.39,3,7-.85,.73-8.22-6.71-9-6-.41,.37,1.39,2.6,1,3-.44,.44-3.39-1.52-11-8-2.08,2.18-4.99,5.82-7,11-1.17,3.02-1.73,5.79-2,8,4.33,2,8.67,4,13,6,2.75-1.33,4.74-1.26,6-1,3.32,.69,4.43,3.36,7,3,2.05-.29,2.24-2.11,4-2,2.09,.13,2.7,2.76,5,3,1.26,.13,2.34-.51,3-1-.33,1.33-.67,2.67-1,4,.62,.12,4.93,1.02,7,5,1.07,2.05,1.07,4.01,1,5-1.33,3.67-2.67,7.33-4,11-32.02-4.73-43.07-9.44-47-13-.69-.63-3.92-3.73-5-3-.92,.62,.15,3.81,1,6-3.33-3.33-6.67-6.67-10-10-4.06-4.27-4.82-8.11-5-10-.15-1.62-.05-3.69,3-12,1.54-4.2,2.97-7.63,4-10,.77-1.29,.77-2.87,0-4-1.01-1.47-3.18-1.99-5-1-5.67,1.33-11.33,2.67-17,4-.39,.02-7.21,.5-10,6-1.23,2.43-1.14,4.78-1,6,.33,4.33,.67,8.67,1,13,.31,.49,.93,1.32,2,2,1.23,.78,2.41,.95,3,1,4,.33,8,.67,12,1v5c.97-.47,2.76-1.16,5-1,4.89,.35,7.64,4.44,8,5,1.33,1.67,2.67,3.33,4,5-1.33,2.33-2.67,4.67-4,7-.54,.94-4.01,6.69-11,8-4.15,.78-7.52-.38-9-1-10.33-5.67-20.67-11.33-31-17-.54-5.29-.91-10.97-1-17-.17-11.51,.69-21.93,2-31,.05-1.4,.39-6.06,4-10,2.17-2.37,4.6-3.49,6-4,8.67-1.67,17.33-3.33,26-5,4.39-.43,7.08-2.44,7-4-.07-1.24-1.89-2.37-4-3-1.68-.36-3.79-1.14-5-3-.64-.98-.36-1.24-1-2-1.89-2.24-5.71-1.6-6-3-.08-.4,.2-.62,0-1-.37-.7-1.54-.34-2-1-.45-.66,.37-1.48,0-2-.52-.71-2.35,.48-4,0-1.74-.51-2.37-2.63-3-4-1.72-3.76-4.34-3.95-11-9-5.52-4.19-4.72-4.83-9-8-2.96-2.2-7.48-4.96-14-7-6.24,1.04-12.57,2.04-19,3-4.71,.7-9.38,1.37-14,2-1.6,1.35-4,2.92-7,3-1.52,.04-2.58-.31-3.78-.64-2.32-.63-5.71-1.3-10.22-1.36-6.67-2.33-13.33-4.67-20-7-1.21-.68-1.74-1.43-2-2-.4-.86-.39-1.77-1-2-.39-.15-.59,.14-1,0-.66-.23-.86-1.27-1-2-.05-.28-.34-1.8,0-3,.73-2.56,4.33-3.76,5-4,3.48-1.25,12.84-7.24,35-24,1.06-1.55,2.55-3.93,4-7,2.68-5.69,3.31-9.78,4-12,1.38-4.43,5.7-10.1,19-15-1.57-1.49-4.26-4.45-6-9-1.6-4.19-1.69-7.88-1.59-10,1.15-.45,3.11-1.05,5.59-1,2.18,.04,3.91,.57,5,1-.06-2.39,.13-7.48,3-13,2.9-5.58,7-8.68,9-10,1.25,.29,3.07,.85,5,2,5.77,3.44,7.5,9.19,10,14,2.15,4.13,5.91,9.58,13,15,14.43,1.34,23.35,6.85,30,10,19,9,17.89,16.52,36,21,4.44,1.1,7.76,1.5,11.64,1.89,12.73,1.28,19.1,1.92,20.36,2.11,10.98,1.68,17.84,6.32,23,9,16.06,8.34,33.19,6.72,53,6,28.99-1.05,58,1.4,87,2,32.69,.67,80.84,22.09,146,118l106-273Z"/>
  </g>
  <g id="Layer_3" data-name="Layer 3">
    <path class="cls-2" d="M274.5,368.65l-2,8.85-11,5-4-2c.43-.79,1.07-1.85,2-3,2.07-2.55,4.24-3.91,6-5,1.97-1.21,4.98-2.78,9-3.85Z"/>
  </g>
</svg>